<?xml version="1.0" encoding="utf-8"?>
<!-- Generator: Adobe Illustrator 27.4.0, SVG Export Plug-In . SVG Version: 6.00 Build 0)  -->
<svg version="1.1" id="Layer_1" xmlns="http://www.w3.org/2000/svg" xmlns:xlink="http://www.w3.org/1999/xlink" x="0px" y="0px"
	 viewBox="0 0 318.6 77.35" style="enable-background:new 0 0 318.6 77.35;" xml:space="preserve">
<style type="text/css">
	.st0{fill:#FFFFFF;}
</style>
<g>
	<path class="st0" d="M98.87,55.75c1.17,0,2.05,0.33,2.65,1c0.33,0.38,0.61,0.94,0.82,1.67h3.32c-0.05-0.95-0.42-1.9-1.09-2.84
		c-1.23-1.68-3.18-2.52-5.84-2.52c-1.99,0-3.63,0.63-4.92,1.88c-1.48,1.44-2.22,3.49-2.22,6.15c0,2.46,0.65,4.39,1.95,5.8
		c1.31,1.41,3.09,2.12,5.37,2.12c1.84,0,3.35-0.52,4.53-1.56c1.18-1.04,1.91-2.4,2.19-4.06h-3.32c-0.22,0.78-0.5,1.37-0.83,1.77
		c-0.6,0.72-1.47,1.09-2.62,1.09c-1.12,0-2.03-0.43-2.76-1.28c-0.73-0.85-1.09-2.13-1.09-3.84c0-1.71,0.34-3.03,1.03-3.97
		C96.73,56.22,97.67,55.75,98.87,55.75z"/>
	<polygon class="st0" points="116.67,59.13 110.44,59.13 110.44,53.32 107.12,53.32 107.12,68.57 110.44,68.57 110.44,61.74 
		116.67,61.74 116.67,68.57 119.99,68.57 119.99,53.32 116.67,53.32 	"/>
	<path class="st0" d="M134.8,54.66c-1.21-1.19-2.96-1.78-5.25-1.78c-2.29,0-4.04,0.59-5.25,1.78c-1.62,1.4-2.43,3.5-2.43,6.28
		c0,2.74,0.81,4.84,2.43,6.29c1.21,1.19,2.96,1.78,5.25,1.78c2.29,0,4.04-0.59,5.25-1.78c1.62-1.46,2.43-3.55,2.43-6.29
		C137.23,58.15,136.42,56.06,134.8,54.66z M132.73,64.92c-0.78,0.93-1.83,1.4-3.17,1.4c-1.33,0-2.39-0.47-3.19-1.4
		c-0.79-0.93-1.19-2.26-1.19-3.98c0-1.71,0.4-3.04,1.19-3.97c0.79-0.93,1.86-1.4,3.19-1.4c1.33,0,2.38,0.47,3.17,1.4
		c0.78,0.94,1.17,2.26,1.17,3.97C133.91,62.66,133.51,63.99,132.73,64.92z"/>
	<path class="st0" d="M150.73,61c-0.61-0.47-1.54-0.83-2.77-1.11l-2.81-0.63c-1.08-0.24-1.79-0.45-2.12-0.63
		c-0.52-0.27-0.78-0.67-0.78-1.21c0-0.59,0.26-1.04,0.79-1.37c0.53-0.33,1.24-0.49,2.12-0.49c0.79,0,1.46,0.12,2,0.38
		c0.8,0.38,1.23,1.02,1.29,1.93h3.19c-0.06-1.63-0.69-2.86-1.89-3.72c-1.2-0.85-2.66-1.28-4.36-1.28c-2.04,0-3.59,0.45-4.64,1.36
		c-1.06,0.91-1.58,2.04-1.58,3.4c0,1.5,0.54,2.59,1.61,3.29c0.64,0.42,1.81,0.81,3.51,1.17l1.73,0.36c1.01,0.21,1.76,0.45,2.22,0.72
		c0.47,0.27,0.7,0.66,0.7,1.16c0,0.87-0.48,1.46-1.43,1.78c-0.5,0.17-1.16,0.25-1.96,0.25c-1.34,0-2.3-0.32-2.85-0.95
		c-0.3-0.34-0.51-0.86-0.61-1.56h-3.19c0,1.58,0.61,2.83,1.81,3.74c1.21,0.91,2.87,1.36,4.97,1.36c2.06,0,3.66-0.46,4.79-1.38
		c1.13-0.92,1.69-2.08,1.69-3.48C152.16,62.75,151.68,61.72,150.73,61z"/>
	<path class="st0" d="M163.59,62.69c0,1.05-0.13,1.82-0.39,2.3c-0.41,0.86-1.29,1.28-2.64,1.28c-1.36,0-2.24-0.42-2.65-1.28
		c-0.26-0.48-0.39-1.24-0.39-2.3v-9.37h-3.4v9.37c0,1.62,0.26,2.89,0.79,3.78c1,1.66,2.88,2.49,5.65,2.49
		c2.78,0,4.65-0.83,5.64-2.49c0.53-0.9,0.79-2.16,0.79-3.78v-9.37h-3.4V62.69z"/>
	<polygon class="st0" points="179.9,63.94 173.51,53.32 170.03,53.32 170.03,68.57 173.12,68.57 173.12,57.73 179.66,68.57 
		182.98,68.57 182.98,53.32 179.9,53.32 	"/>
	<path class="st0" d="M201.51,62.69c0,1.05-0.14,1.82-0.39,2.3c-0.41,0.86-1.28,1.28-2.64,1.28c-1.36,0-2.24-0.42-2.65-1.28
		c-0.26-0.48-0.39-1.24-0.39-2.3v-9.37h-3.4v9.37c0,1.62,0.27,2.89,0.79,3.78c0.99,1.66,2.87,2.49,5.65,2.49
		c2.78,0,4.65-0.83,5.64-2.49c0.53-0.9,0.79-2.16,0.79-3.78v-9.37h-3.4V62.69z"/>
	<polygon class="st0" points="217.81,63.94 211.43,53.32 207.95,53.32 207.95,68.57 211.04,68.57 211.04,57.73 217.58,68.57 
		220.9,68.57 220.9,53.32 217.81,53.32 	"/>
	<rect x="224.4" y="53.32" class="st0" width="3.33" height="15.25"/>
	<polygon class="st0" points="236.43,64.91 232.95,53.32 229.37,53.32 234.79,68.57 237.92,68.57 243.38,53.32 239.94,53.32 	"/>
	<polygon class="st0" points="247.78,61.9 255.37,61.9 255.37,59.26 247.78,59.26 247.78,56.01 256.07,56.01 256.07,53.32 
		244.52,53.32 244.52,68.57 256.47,68.57 256.47,65.82 247.78,65.82 	"/>
	<path class="st0" d="M270.53,67.32c-0.06-0.25-0.09-0.72-0.09-1.42v-1.03c0-1.08-0.16-1.88-0.46-2.39
		c-0.31-0.52-0.83-0.92-1.57-1.2c0.88-0.29,1.51-0.79,1.9-1.48c0.38-0.7,0.58-1.41,0.58-2.13c0-0.6-0.1-1.14-0.3-1.6
		c-0.2-0.46-0.47-0.9-0.8-1.29c-0.41-0.46-0.91-0.81-1.5-1.06c-0.59-0.24-1.43-0.38-2.53-0.4h-7.66v15.25h3.27v-5.99h3.28
		c0.94,0,1.57,0.16,1.91,0.49c0.34,0.32,0.52,0.97,0.53,1.95l0.02,1.43c0.01,0.44,0.05,0.88,0.14,1.31
		c0.04,0.21,0.11,0.49,0.21,0.82h3.68v-0.38C270.82,68.01,270.62,67.71,270.53,67.32z M266.59,59.82c-0.36,0.17-0.9,0.25-1.61,0.25
		h-3.61v-4.11h3.7c0.69,0,1.2,0.09,1.55,0.27c0.61,0.31,0.92,0.93,0.92,1.86C267.54,58.95,267.22,59.53,266.59,59.82z"/>
	<path class="st0" d="M283.89,61c-0.61-0.47-1.54-0.83-2.77-1.11l-2.81-0.63c-1.09-0.24-1.79-0.45-2.13-0.63
		c-0.52-0.27-0.78-0.67-0.78-1.21c0-0.59,0.26-1.04,0.79-1.37c0.53-0.33,1.24-0.49,2.12-0.49c0.79,0,1.46,0.12,1.99,0.38
		c0.8,0.38,1.23,1.02,1.29,1.93h3.19c-0.06-1.63-0.69-2.86-1.89-3.72c-1.2-0.85-2.66-1.28-4.36-1.28c-2.04,0-3.59,0.45-4.64,1.36
		c-1.05,0.91-1.58,2.04-1.58,3.4c0,1.5,0.54,2.59,1.61,3.29c0.64,0.42,1.81,0.81,3.51,1.17l1.73,0.36c1.02,0.21,1.75,0.45,2.22,0.72
		c0.47,0.27,0.7,0.66,0.7,1.16c0,0.87-0.47,1.46-1.43,1.78c-0.5,0.17-1.16,0.25-1.97,0.25c-1.35,0-2.3-0.32-2.85-0.95
		c-0.3-0.34-0.51-0.86-0.61-1.56h-3.19c0,1.58,0.61,2.83,1.81,3.74c1.21,0.91,2.86,1.36,4.97,1.36c2.06,0,3.66-0.46,4.79-1.38
		c1.13-0.92,1.69-2.08,1.69-3.48C285.33,62.75,284.85,61.72,283.89,61z"/>
	<rect x="287.44" y="53.32" class="st0" width="3.32" height="15.25"/>
	<polygon class="st0" points="314.2,53.32 311.02,59.97 307.71,53.32 305.24,53.32 303.77,53.32 292.24,53.32 292.24,56.01 
		297.05,56.01 297.05,68.57 300.43,68.57 300.43,56.01 305.24,56.01 305.24,55.86 309.31,62.88 309.31,68.57 312.64,68.57 
		312.64,62.85 317.99,53.32 	"/>
</g>
<g>
	<polygon class="st0" points="15.73,24.07 15.73,21.66 14.3,24.07 	"/>
	<path class="st0" d="M10.94,21.41c-0.19,0-0.36,0.05-0.49,0.16c-0.22,0.16-0.32,0.44-0.32,0.83c0,0.33,0.07,0.58,0.21,0.74
		c0.14,0.17,0.35,0.25,0.64,0.25c0.16,0,0.3-0.04,0.44-0.13c0.26-0.16,0.39-0.43,0.39-0.83c0-0.31-0.08-0.56-0.23-0.75
		C11.41,21.5,11.2,21.41,10.94,21.41z"/>
	<path class="st0" d="M19.92,23.4c-0.19,0-0.36,0.06-0.51,0.17c-0.22,0.17-0.33,0.43-0.33,0.8c0,0.3,0.08,0.54,0.25,0.73
		c0.16,0.19,0.37,0.28,0.63,0.28c0.25,0,0.44-0.09,0.58-0.27c0.14-0.18,0.21-0.42,0.21-0.71c0-0.32-0.08-0.57-0.24-0.74
		C20.35,23.49,20.15,23.4,19.92,23.4z"/>
	<path class="st0" d="M18.03,9.64c0.46,0,0.82-0.16,1.09-0.49c0.27-0.33,0.4-0.8,0.4-1.41c0-0.6-0.13-1.07-0.4-1.4
		c-0.27-0.33-0.63-0.5-1.09-0.5c-0.46,0-0.82,0.16-1.09,0.5c-0.27,0.33-0.41,0.8-0.41,1.4c0,0.61,0.14,1.08,0.41,1.41
		C17.21,9.48,17.57,9.64,18.03,9.64z"/>
	<path class="st0" d="M0,0v77.35h77.35V0H0z M52.83,22.09l2.33,3.89h11.91c0,0,3.39,0.51,3.3,3.75l-0.01,8.13h-5.22v-8.84h-8.04
		l5.51,8.91h-5.92l-3.93-6.34l-3.76,6.34h-5.94l5.42-8.91h-8.3v8.84h-5.12l0-8.97c0.19-2.57,3.08-2.91,3.08-2.91h12.37L52.83,22.09z
		 M50.32,42.91h-3.94v-2.97h12.86v2.97h-4.21c0,0-0.13,4.11,4.23,5.11v4.41c-4.35-0.86-6.38-4.57-6.38-4.57
		c-1.66,3.23-6.6,4.57-6.6,4.57v-4.41C50.94,46.3,50.32,42.91,50.32,42.91z M44.31,45.28v3h-4.13v2.57h4.13v2.99h-9.2V42.69
		c0.07-2.87,2.5-2.72,2.5-2.72h6.7v2.96h-4.13v2.35H44.31z M39.7,12.88h3.96h0.51h0.85l1.14,2.35l1.09-2.35h1.3l-1.84,3.37v2.02
		h-1.14v-2.01l-1.4-2.48v0.05h-1.65v4.44h-1.16v-4.44H39.7V12.88z M38.05,12.88h1.14v5.39h-1.14V12.88z M31.91,5.05h1.19L35.3,8.8
		V5.05h1.06v5.39h-1.14l-2.25-3.83v3.83h-1.06V5.05z M26.45,5.05h1.17v3.31c0,0.37,0.04,0.64,0.13,0.81
		c0.14,0.3,0.44,0.45,0.91,0.45c0.46,0,0.77-0.15,0.9-0.45C29.66,9,29.7,8.73,29.7,8.36V5.05h1.17v3.31c0,0.57-0.09,1.02-0.27,1.34
		c-0.34,0.59-0.98,0.88-1.94,0.88c-0.95,0-1.6-0.29-1.94-0.88c-0.18-0.32-0.27-0.76-0.27-1.34V5.05z M24.43,8.54
		c-0.16-0.1-0.42-0.18-0.76-0.25l-0.6-0.13c-0.58-0.13-0.99-0.27-1.2-0.42c-0.37-0.25-0.55-0.63-0.55-1.16
		c0-0.48,0.18-0.88,0.54-1.21c0.36-0.32,0.89-0.48,1.59-0.48c0.58,0,1.08,0.15,1.5,0.45c0.41,0.3,0.63,0.74,0.65,1.32h-1.1
		c-0.02-0.32-0.17-0.55-0.44-0.68c-0.18-0.09-0.41-0.13-0.68-0.13c-0.3,0-0.55,0.06-0.73,0.17c-0.18,0.12-0.27,0.28-0.27,0.49
		c0,0.19,0.09,0.33,0.27,0.42c0.11,0.06,0.36,0.14,0.73,0.22l0.96,0.22c0.42,0.09,0.74,0.23,0.95,0.39c0.33,0.25,0.49,0.62,0.49,1.1
		c0,0.49-0.19,0.91-0.58,1.23c-0.39,0.33-0.94,0.49-1.64,0.49c-0.72,0-1.29-0.16-1.71-0.48c-0.41-0.32-0.62-0.76-0.62-1.32h1.09
		c0.04,0.25,0.11,0.43,0.21,0.55c0.19,0.22,0.52,0.34,0.98,0.34c0.28,0,0.5-0.03,0.67-0.09c0.33-0.11,0.49-0.32,0.49-0.63
		C24.68,8.77,24.59,8.63,24.43,8.54z M16.22,5.52c0.41-0.42,1.01-0.63,1.8-0.63c0.78,0,1.39,0.21,1.8,0.63
		c0.55,0.49,0.83,1.24,0.83,2.22c0,0.97-0.28,1.71-0.83,2.23c-0.41,0.42-1.02,0.63-1.8,0.63c-0.79,0-1.39-0.21-1.8-0.63
		c-0.56-0.51-0.84-1.26-0.84-2.23C15.39,6.76,15.66,6.02,16.22,5.52z M10.32,5.05h1.14V7.1h2.14V5.05h1.14v5.39H13.6V8.03h-2.14
		v2.42h-1.14V5.05z M15.22,12.88v5.39h-1.14l-2.25-3.83v3.83h-1.06v-5.39h1.19l2.19,3.76v-3.76H15.22z M5.76,5.62
		c0.44-0.44,1-0.67,1.69-0.67c0.91,0,1.58,0.3,2,0.89c0.23,0.33,0.36,0.67,0.38,1H8.68C8.61,6.59,8.52,6.4,8.4,6.26
		C8.2,6.03,7.89,5.91,7.49,5.91c-0.41,0-0.73,0.17-0.97,0.5c-0.24,0.33-0.35,0.8-0.35,1.4c0,0.6,0.12,1.06,0.37,1.36
		s0.57,0.45,0.95,0.45c0.39,0,0.69-0.13,0.9-0.38C8.5,9.09,8.6,8.88,8.67,8.61h1.14c-0.1,0.59-0.35,1.07-0.75,1.43
		c-0.4,0.37-0.92,0.56-1.55,0.56c-0.78,0-1.4-0.25-1.84-0.75C5.22,9.35,4.99,8.67,4.99,7.8C4.99,6.86,5.25,6.13,5.76,5.62z
		 M5.31,12.88h1.17v3.31c0,0.37,0.05,0.64,0.13,0.81c0.14,0.3,0.44,0.45,0.91,0.45c0.47,0,0.77-0.15,0.91-0.45
		c0.09-0.17,0.13-0.44,0.13-0.81v-3.31h1.17v3.31c0,0.57-0.09,1.02-0.27,1.34c-0.34,0.59-0.98,0.88-1.94,0.88
		c-0.95,0-1.6-0.29-1.94-0.88c-0.18-0.32-0.27-0.76-0.27-1.34V12.88z M7.94,26.14H6.79v-3.89H5.45V21.5
		c0.35-0.02,0.6-0.04,0.74-0.07c0.23-0.05,0.41-0.15,0.55-0.29c0.1-0.1,0.17-0.23,0.22-0.4C6.99,20.65,7,20.57,7,20.53h0.93V26.14z
		 M12.68,24.99c-0.34,0.86-0.96,1.29-1.86,1.29c-0.43,0-0.82-0.12-1.16-0.37c-0.34-0.25-0.54-0.61-0.59-1.08h1.12
		c0.03,0.16,0.1,0.3,0.21,0.4c0.12,0.1,0.27,0.15,0.46,0.15c0.37,0,0.63-0.2,0.79-0.6c0.08-0.22,0.13-0.54,0.15-0.96
		c-0.1,0.12-0.21,0.22-0.33,0.29c-0.21,0.13-0.47,0.19-0.78,0.19c-0.46,0-0.86-0.15-1.21-0.46c-0.35-0.31-0.53-0.75-0.53-1.33
		c0-0.6,0.18-1.08,0.53-1.46c0.35-0.37,0.81-0.56,1.38-0.56c0.87,0,1.47,0.38,1.79,1.13c0.18,0.43,0.28,0.99,0.28,1.69
		C12.95,23.97,12.86,24.54,12.68,24.99z M17.47,24.93h-0.65v1.21h-1.1v-1.21h-2.27v-0.96l2.11-3.4h1.26v3.51h0.65V24.93z
		 M17.56,18.27h-1.14v-5.39h1.14V18.27z M21.43,25.68c-0.32,0.4-0.81,0.6-1.48,0.6c-0.72,0-1.25-0.29-1.59-0.89
		c-0.26-0.46-0.4-1.05-0.4-1.78c0-0.43,0.02-0.78,0.06-1.04c0.07-0.48,0.19-0.87,0.38-1.19c0.16-0.27,0.38-0.48,0.64-0.65
		c0.27-0.16,0.58-0.25,0.95-0.25c0.53,0,0.95,0.13,1.27,0.4c0.31,0.27,0.49,0.62,0.53,1.07h-1.12c0-0.09-0.03-0.19-0.11-0.3
		c-0.12-0.18-0.3-0.27-0.54-0.27c-0.36,0-0.62,0.21-0.77,0.61c-0.09,0.22-0.14,0.55-0.17,0.99c0.14-0.17,0.3-0.29,0.48-0.36
		c0.18-0.08,0.39-0.12,0.63-0.12c0.51,0,0.92,0.17,1.24,0.51c0.32,0.34,0.49,0.77,0.49,1.29C21.9,24.83,21.74,25.29,21.43,25.68z
		 M21.06,18.27h-1.07l-1.86-5.39h1.23l1.2,4.1l1.2-4.1h1.18L21.06,18.27z M27.42,18.27h-4.1v-5.39h3.97v0.95h-2.85v1.15h2.6v0.94
		h-2.6v1.39h2.98V18.27z M32.46,18.27H31.2c-0.03-0.12-0.06-0.21-0.08-0.29c-0.03-0.15-0.04-0.3-0.05-0.46l-0.01-0.51
		c0-0.34-0.07-0.57-0.18-0.69c-0.12-0.11-0.33-0.17-0.66-0.17H29.1v2.12h-1.12v-5.39h2.63c0.37,0.01,0.66,0.06,0.87,0.14
		c0.2,0.08,0.37,0.21,0.52,0.37c0.12,0.14,0.21,0.29,0.28,0.46c0.07,0.17,0.1,0.35,0.1,0.57c0,0.26-0.07,0.51-0.2,0.75
		c-0.13,0.25-0.35,0.42-0.65,0.53c0.25,0.1,0.43,0.24,0.54,0.42c0.1,0.18,0.16,0.46,0.16,0.85v0.36c0,0.25,0.01,0.41,0.03,0.5
		c0.03,0.14,0.1,0.25,0.21,0.31V18.27z M32.77,16.61h1.1c0.03,0.25,0.1,0.43,0.21,0.55c0.19,0.22,0.52,0.34,0.98,0.34
		c0.28,0,0.5-0.03,0.67-0.09c0.33-0.11,0.49-0.32,0.49-0.63c0-0.18-0.08-0.31-0.24-0.41c-0.16-0.1-0.41-0.18-0.76-0.25l-0.59-0.13
		c-0.58-0.13-0.99-0.27-1.2-0.42c-0.37-0.25-0.55-0.64-0.55-1.16c0-0.48,0.18-0.88,0.54-1.2c0.36-0.32,0.89-0.48,1.59-0.48
		c0.59,0,1.09,0.15,1.5,0.45c0.41,0.3,0.63,0.74,0.65,1.31h-1.1c-0.02-0.32-0.17-0.55-0.44-0.68c-0.18-0.09-0.41-0.13-0.69-0.13
		c-0.3,0-0.54,0.06-0.73,0.17c-0.18,0.12-0.27,0.28-0.27,0.48c0,0.19,0.09,0.33,0.27,0.43c0.11,0.06,0.36,0.14,0.73,0.22l0.96,0.22
		c0.42,0.1,0.74,0.23,0.95,0.39c0.33,0.25,0.49,0.62,0.49,1.1c0,0.5-0.19,0.91-0.58,1.23c-0.39,0.33-0.94,0.49-1.64,0.49
		c-0.72,0-1.29-0.16-1.71-0.48C32.98,17.61,32.77,17.17,32.77,16.61z M62.19,71H46.08c-2.24,0.06-2.2-1.9-2.2-1.9v-2.38h4.27v1.68
		h14.05V71z M42.25,66.58v-2.9c3.65-0.03,3.94-3.32,3.94-3.32l4.15,0.06c0.69,3,3.95,3.36,3.95,3.36v2.85
		c-4.34-0.02-6.02-2.47-6.02-2.47C46.49,66.61,42.25,66.58,42.25,66.58z M55.36,64.61v-2.4h2.51v-1.87h4.28v6.53h-4.28v-2.26H55.36z
		 M70.35,70.9h-5.12V59.03H40.18V70.9h-5.12l0-12.69c0.02-2.08,2.57-2.38,2.57-2.38h12.52v-3.18h5.49v3.18h12.31
		c0,0,2.36,0.53,2.4,2.17L70.35,70.9z M70.37,53.84l-9.21-0.01v-2.98h4.13v-2.57h-4.13v-3h4.13v-2.35h-4.13v-2.96h6.59
		c0,0,2.31,0.38,2.61,2.46V53.84z"/>
	<path class="st0" d="M30.37,13.82H29.1v1.45h1.24c0.25,0,0.43-0.03,0.55-0.09c0.22-0.1,0.33-0.3,0.33-0.61
		c0-0.33-0.11-0.55-0.32-0.66C30.79,13.85,30.61,13.82,30.37,13.82z"/>
</g>
<g>
	<path class="st0" d="M179.4,8.14h-7.55v7.45h-6.29v3.73h6.29v22.88h-21.46V33.5h-7.41v8.15c0,0-0.33,4.07,4.67,4.28h31.77
		L179.4,8.14z"/>
	<path class="st0" d="M152.44,23.01c3.41,3.38,8.74,6.72,13.97,8.15l2.42-3.81c-6.21-2.39-12.36-6.94-12.36-12.79V9.7h-8v4.91
		c0,6.32-6.2,9.97-12.47,12.69l2.53,3.9C143.64,29.94,149.75,25.95,152.44,23.01z"/>
	<path class="st0" d="M312.64,41.38c1.75-3.65,1.29-16.05,1.29-16.05V9.7h-35.3v3.73h27.85v15.63c0,0,0.09,9.93-1.1,12.33h-4.83
		V23.92h-7.41v17.46h-4.23V23.92h-7.62v17.46h-4.99v3.73h40.52v-3.73H312.64z"/>
	<polygon class="st0" points="117.15,32.04 109.66,32.04 109.66,41.18 92.29,41.18 92.29,44.91 134.52,44.91 134.52,41.18 
		117.15,41.18 	"/>
	<path class="st0" d="M92.62,27.23l3.01,3.9c6.7-1.82,14.09-5.2,17.77-9.97c4.25,5.24,10.85,7.88,17.77,9.97l3.01-3.9
		c-9.02-2.56-16.21-5.82-16.78-13.96l15.41-0.04V9.5H93.99v3.72h15.41C108.78,21.41,101.7,24.63,92.62,27.23z"/>
	<path class="st0" d="M258.53,21.38c0-3.47-2.58-5.65-5.96-6.64c0,0-2.71-0.9-4.54,1.16c0,0-1.83,2.07,0.89,4.31
		c0,0,2.42,1.89,0.77,4.07c0,0-0.88,1.73-3.42,1.72c-3.05-0.01-6.33-1.19-6.47-5.57c-0.12-3.54,1.97-5.92,6.37-6.44
		c11.51,0,11.49,0,12.47,0v-3.62h-10.09V7.14h-7.95v3.25H230.6v3.62h4.98c-2.14,1.38-3.5,4.31-3.5,6.62
		C232.08,32.2,258.53,31.78,258.53,21.38z"/>
	<path class="st0" d="M188.47,35.25h8.11c3.52,0,6.87-0.09,10.27-0.87v11.58h7.45V24.33h4.21v21.62h7.29V8.17h-7.29v12.48h-4.21
		V8.17h-7.45v22.44c-3.86,1.13-6.41,0.95-9.7,0.95h-4.67V13.69h10.11V9.96h-17.5v21.83C185.08,31.78,185,34.86,188.47,35.25z"/>
	<polygon class="st0" points="270.73,8.03 263.17,8.03 263.17,31.95 234.84,31.95 234.84,35.67 263.17,35.67 263.17,45.86 
		270.73,45.86 270.73,34.55 270.73,31.95 270.73,19.25 276.23,19.25 276.23,15.52 270.73,15.52 	"/>
</g>
</svg>
