<?xml version="1.0" encoding="utf-8"?>
<!-- Generator: Adobe Illustrator 27.4.0, SVG Export Plug-In . SVG Version: 6.00 Build 0)  -->
<svg version="1.1" id="Layer_1" xmlns="http://www.w3.org/2000/svg" xmlns:xlink="http://www.w3.org/1999/xlink" x="0px" y="0px"
	 viewBox="0 0 318.6 77.35" style="enable-background:new 0 0 318.6 77.35;" xml:space="preserve">
<style type="text/css">
	.st0{fill:#0054A7;}
	.st1{fill:#FFFFFF;}
</style>
<g>
	<path d="M99.48,55.75c1.17,0,2.05,0.33,2.65,1c0.33,0.38,0.61,0.94,0.82,1.67h3.32c-0.05-0.95-0.42-1.9-1.09-2.84
		c-1.23-1.68-3.18-2.52-5.84-2.52c-1.99,0-3.63,0.63-4.92,1.88c-1.48,1.44-2.22,3.49-2.22,6.15c0,2.46,0.65,4.39,1.95,5.8
		c1.31,1.41,3.09,2.12,5.37,2.12c1.84,0,3.35-0.52,4.53-1.56c1.18-1.04,1.91-2.4,2.19-4.06h-3.32c-0.22,0.78-0.5,1.37-0.83,1.77
		c-0.6,0.72-1.47,1.09-2.62,1.09c-1.12,0-2.03-0.43-2.76-1.28c-0.73-0.85-1.09-2.13-1.09-3.84c0-1.71,0.34-3.03,1.03-3.97
		C97.34,56.22,98.28,55.75,99.48,55.75z"/>
	<polygon points="117.28,59.13 111.05,59.13 111.05,53.32 107.73,53.32 107.73,68.57 111.05,68.57 111.05,61.74 117.28,61.74 
		117.28,68.57 120.6,68.57 120.6,53.32 117.28,53.32 	"/>
	<path d="M135.41,54.66c-1.21-1.19-2.96-1.78-5.25-1.78c-2.29,0-4.04,0.59-5.25,1.78c-1.62,1.4-2.43,3.5-2.43,6.28
		c0,2.74,0.81,4.84,2.43,6.29c1.21,1.19,2.96,1.78,5.25,1.78c2.29,0,4.04-0.59,5.25-1.78c1.62-1.46,2.43-3.55,2.43-6.29
		C137.84,58.15,137.03,56.06,135.41,54.66z M133.34,64.92c-0.78,0.93-1.83,1.4-3.16,1.4c-1.33,0-2.39-0.47-3.19-1.4
		c-0.79-0.93-1.19-2.26-1.19-3.98c0-1.71,0.4-3.04,1.19-3.97c0.79-0.93,1.86-1.4,3.19-1.4c1.33,0,2.38,0.47,3.16,1.4
		c0.78,0.94,1.17,2.26,1.17,3.97C134.52,62.66,134.12,63.99,133.34,64.92z"/>
	<path d="M151.34,61c-0.61-0.47-1.54-0.84-2.77-1.11l-2.81-0.63c-1.08-0.24-1.79-0.45-2.12-0.63c-0.52-0.27-0.78-0.67-0.78-1.21
		c0-0.59,0.26-1.04,0.79-1.37c0.53-0.33,1.24-0.49,2.12-0.49c0.79,0,1.46,0.12,2,0.38c0.8,0.38,1.23,1.02,1.29,1.93h3.19
		c-0.06-1.63-0.69-2.86-1.89-3.72c-1.2-0.85-2.66-1.28-4.36-1.28c-2.04,0-3.59,0.45-4.64,1.36c-1.06,0.91-1.58,2.04-1.58,3.4
		c0,1.5,0.54,2.59,1.61,3.29c0.64,0.42,1.81,0.81,3.51,1.17l1.73,0.36c1.01,0.21,1.76,0.45,2.22,0.72c0.47,0.27,0.7,0.66,0.7,1.16
		c0,0.87-0.48,1.46-1.43,1.78c-0.5,0.17-1.16,0.25-1.96,0.25c-1.34,0-2.3-0.32-2.85-0.95c-0.3-0.34-0.51-0.86-0.61-1.56h-3.19
		c0,1.58,0.6,2.83,1.81,3.74c1.21,0.91,2.87,1.36,4.97,1.36c2.06,0,3.66-0.46,4.79-1.38c1.13-0.92,1.69-2.08,1.69-3.48
		C152.77,62.75,152.29,61.72,151.34,61z"/>
	<path d="M164.2,62.69c0,1.05-0.13,1.82-0.39,2.3c-0.41,0.86-1.29,1.28-2.64,1.28c-1.36,0-2.24-0.42-2.65-1.28
		c-0.26-0.48-0.39-1.24-0.39-2.3v-9.37h-3.4v9.37c0,1.62,0.26,2.89,0.79,3.78c1,1.66,2.88,2.49,5.65,2.49
		c2.78,0,4.65-0.83,5.64-2.49c0.53-0.9,0.79-2.16,0.79-3.78v-9.37h-3.4V62.69z"/>
	<polygon points="180.51,63.94 174.12,53.32 170.64,53.32 170.64,68.57 173.73,68.57 173.73,57.73 180.27,68.57 183.59,68.57 
		183.59,53.32 180.51,53.32 	"/>
	<path d="M202.12,62.69c0,1.05-0.14,1.82-0.39,2.3c-0.41,0.86-1.28,1.28-2.64,1.28c-1.36,0-2.24-0.42-2.65-1.28
		c-0.26-0.48-0.39-1.24-0.39-2.3v-9.37h-3.4v9.37c0,1.62,0.27,2.89,0.79,3.78c0.99,1.66,2.87,2.49,5.65,2.49
		c2.78,0,4.65-0.83,5.64-2.49c0.53-0.9,0.79-2.16,0.79-3.78v-9.37h-3.4V62.69z"/>
	<polygon points="218.42,63.94 212.04,53.32 208.56,53.32 208.56,68.57 211.65,68.57 211.65,57.73 218.19,68.57 221.51,68.57 
		221.51,53.32 218.42,53.32 	"/>
	<rect x="225.01" y="53.32" width="3.33" height="15.25"/>
	<polygon points="237.04,64.91 233.56,53.32 229.98,53.32 235.4,68.57 238.53,68.57 243.99,53.32 240.55,53.32 	"/>
	<polygon points="248.39,61.9 255.98,61.9 255.98,59.26 248.39,59.26 248.39,56.01 256.69,56.01 256.69,53.32 245.13,53.32 
		245.13,68.57 257.08,68.57 257.08,65.82 248.39,65.82 	"/>
	<path d="M271.14,67.32c-0.06-0.25-0.09-0.72-0.09-1.42v-1.03c0-1.08-0.16-1.88-0.46-2.39c-0.31-0.52-0.83-0.92-1.57-1.2
		c0.88-0.29,1.51-0.79,1.9-1.48c0.38-0.7,0.58-1.41,0.58-2.13c0-0.6-0.1-1.14-0.3-1.6c-0.2-0.46-0.47-0.9-0.8-1.29
		c-0.41-0.46-0.91-0.81-1.5-1.06c-0.59-0.24-1.43-0.38-2.53-0.4h-7.66v15.25h3.27v-5.99h3.28c0.94,0,1.57,0.16,1.91,0.49
		c0.34,0.32,0.52,0.97,0.53,1.95l0.02,1.43c0.01,0.44,0.05,0.88,0.14,1.31c0.04,0.21,0.11,0.49,0.21,0.82h3.68v-0.38
		C271.43,68.01,271.23,67.71,271.14,67.32z M267.2,59.82c-0.36,0.17-0.9,0.25-1.61,0.25h-3.61v-4.11h3.7c0.69,0,1.2,0.09,1.55,0.27
		c0.61,0.31,0.92,0.93,0.92,1.86C268.15,58.95,267.83,59.53,267.2,59.82z"/>
	<path d="M284.51,61c-0.61-0.47-1.54-0.84-2.77-1.11l-2.81-0.63c-1.09-0.24-1.79-0.45-2.13-0.63c-0.52-0.27-0.78-0.67-0.78-1.21
		c0-0.59,0.26-1.04,0.79-1.37c0.53-0.33,1.24-0.49,2.12-0.49c0.79,0,1.46,0.12,1.99,0.38c0.8,0.38,1.23,1.02,1.29,1.93h3.19
		c-0.06-1.63-0.69-2.86-1.89-3.72c-1.2-0.85-2.66-1.28-4.36-1.28c-2.04,0-3.59,0.45-4.64,1.36c-1.05,0.91-1.58,2.04-1.58,3.4
		c0,1.5,0.54,2.59,1.61,3.29c0.64,0.42,1.81,0.81,3.51,1.17l1.73,0.36c1.02,0.21,1.75,0.45,2.22,0.72c0.47,0.27,0.7,0.66,0.7,1.16
		c0,0.87-0.47,1.46-1.43,1.78c-0.5,0.17-1.16,0.25-1.97,0.25c-1.35,0-2.3-0.32-2.85-0.95c-0.3-0.34-0.51-0.86-0.61-1.56h-3.19
		c0,1.58,0.61,2.83,1.81,3.74c1.21,0.91,2.86,1.36,4.97,1.36c2.06,0,3.66-0.46,4.79-1.38c1.13-0.92,1.69-2.08,1.69-3.48
		C285.94,62.75,285.46,61.72,284.51,61z"/>
	<rect x="288.05" y="53.32" width="3.32" height="15.25"/>
	<polygon points="314.81,53.32 311.63,59.97 308.32,53.32 305.85,53.32 304.38,53.32 292.85,53.32 292.85,56.01 297.66,56.01 
		297.66,68.57 301.04,68.57 301.04,56.01 305.85,56.01 305.85,55.86 309.92,62.88 309.92,68.57 313.25,68.57 313.25,62.85 
		318.6,53.32 	"/>
</g>
<g>
	<rect x="0.61" class="st0" width="77.35" height="77.35"/>
	<g>
		<path class="st1" d="M8.1,5.91c0.4,0,0.7,0.12,0.91,0.35C9.13,6.4,9.22,6.59,9.29,6.85h1.14c-0.02-0.34-0.14-0.67-0.38-1
			c-0.42-0.59-1.09-0.89-2-0.89c-0.68,0-1.24,0.22-1.69,0.66C5.86,6.13,5.61,6.86,5.61,7.8c0,0.87,0.22,1.55,0.67,2.05
			c0.45,0.5,1.06,0.75,1.84,0.75c0.63,0,1.15-0.18,1.55-0.56c0.4-0.37,0.65-0.85,0.75-1.43H9.29C9.21,8.88,9.11,9.09,9,9.23
			C8.79,9.49,8.49,9.62,8.1,9.62c-0.38,0-0.7-0.15-0.95-0.45C6.9,8.86,6.78,8.41,6.78,7.81c0-0.6,0.12-1.07,0.35-1.4
			C7.37,6.08,7.69,5.91,8.1,5.91z"/>
		<polygon class="st1" points="14.21,7.1 12.07,7.1 12.07,5.05 10.93,5.05 10.93,10.44 12.07,10.44 12.07,8.03 14.21,8.03 
			14.21,10.44 15.35,10.44 15.35,5.05 14.21,5.05 		"/>
		<path class="st1" d="M20.43,5.52c-0.42-0.42-1.02-0.63-1.8-0.63c-0.79,0-1.39,0.21-1.8,0.63C16.27,6.02,16,6.76,16,7.74
			c0,0.97,0.28,1.71,0.84,2.23c0.41,0.42,1.01,0.63,1.8,0.63c0.78,0,1.39-0.21,1.8-0.63c0.55-0.51,0.83-1.26,0.83-2.23
			C21.27,6.76,20.99,6.02,20.43,5.52z M19.72,9.15c-0.27,0.33-0.63,0.49-1.09,0.49c-0.46,0-0.82-0.16-1.09-0.49
			c-0.27-0.33-0.41-0.8-0.41-1.41c0-0.6,0.14-1.07,0.41-1.4c0.27-0.33,0.64-0.5,1.09-0.5c0.46,0,0.82,0.16,1.09,0.5
			c0.27,0.33,0.4,0.8,0.4,1.4C20.13,8.35,19.99,8.82,19.72,9.15z"/>
		<path class="st1" d="M25.9,7.76c-0.21-0.16-0.53-0.3-0.95-0.39l-0.96-0.22c-0.37-0.08-0.62-0.16-0.73-0.22
			c-0.18-0.09-0.27-0.23-0.27-0.42c0-0.21,0.09-0.37,0.27-0.49c0.18-0.12,0.42-0.17,0.73-0.17c0.27,0,0.5,0.04,0.68,0.13
			c0.27,0.13,0.42,0.36,0.44,0.68h1.1c-0.02-0.57-0.24-1.01-0.65-1.32c-0.41-0.3-0.91-0.45-1.5-0.45c-0.7,0-1.23,0.16-1.59,0.48
			c-0.36,0.32-0.54,0.72-0.54,1.21c0,0.53,0.18,0.91,0.55,1.16c0.22,0.15,0.62,0.29,1.2,0.42l0.6,0.13c0.35,0.08,0.6,0.16,0.76,0.25
			c0.16,0.1,0.24,0.24,0.24,0.41c0,0.31-0.16,0.51-0.49,0.63c-0.17,0.06-0.4,0.09-0.67,0.09c-0.46,0-0.79-0.11-0.98-0.34
			c-0.1-0.12-0.17-0.3-0.21-0.55h-1.09c0,0.56,0.21,1,0.62,1.32c0.41,0.32,0.98,0.48,1.71,0.48c0.71,0,1.26-0.16,1.64-0.49
			c0.39-0.33,0.58-0.74,0.58-1.23C26.39,8.38,26.23,8.02,25.9,7.76z"/>
		<path class="st1" d="M30.31,8.36c0,0.37-0.04,0.64-0.14,0.81c-0.14,0.3-0.44,0.45-0.9,0.45c-0.47,0-0.77-0.15-0.91-0.45
			C28.27,9,28.23,8.73,28.23,8.36V5.05h-1.17v3.31c0,0.57,0.09,1.02,0.27,1.34c0.34,0.59,0.99,0.88,1.94,0.88
			c0.95,0,1.6-0.29,1.94-0.88c0.18-0.32,0.27-0.76,0.27-1.34V5.05h-1.17V8.36z"/>
		<polygon class="st1" points="35.91,8.8 33.72,5.05 32.52,5.05 32.52,10.44 33.58,10.44 33.58,6.61 35.83,10.44 36.96,10.44 
			36.96,5.05 35.91,5.05 		"/>
		<path class="st1" d="M9.17,16.2c0,0.37-0.04,0.64-0.13,0.81c-0.14,0.3-0.44,0.45-0.91,0.45c-0.47,0-0.77-0.15-0.91-0.45
			c-0.09-0.17-0.13-0.44-0.13-0.81v-3.31H5.93v3.31c0,0.57,0.09,1.02,0.27,1.34c0.34,0.59,0.98,0.88,1.94,0.88
			c0.95,0,1.6-0.29,1.94-0.88c0.18-0.32,0.27-0.76,0.27-1.34v-3.31H9.17V16.2z"/>
		<polygon class="st1" points="14.77,16.64 12.58,12.88 11.39,12.88 11.39,18.27 12.44,18.27 12.44,14.44 14.69,18.27 15.83,18.27 
			15.83,12.88 14.77,12.88 		"/>
		<rect x="17.03" y="12.88" class="st1" width="1.14" height="5.39"/>
		<polygon class="st1" points="21.16,16.98 19.96,12.88 18.73,12.88 20.6,18.27 21.67,18.27 23.54,12.88 22.36,12.88 		"/>
		<polygon class="st1" points="25.05,15.92 27.66,15.92 27.66,14.98 25.05,14.98 25.05,13.83 27.9,13.83 27.9,12.88 23.93,12.88 
			23.93,18.27 28.03,18.27 28.03,17.3 25.05,17.3 		"/>
		<path class="st1" d="M32.86,17.83c-0.02-0.09-0.03-0.25-0.03-0.5v-0.36c0-0.38-0.05-0.66-0.16-0.85
			c-0.11-0.18-0.28-0.32-0.54-0.42c0.3-0.1,0.52-0.28,0.65-0.53c0.13-0.25,0.2-0.5,0.2-0.75c0-0.21-0.03-0.4-0.1-0.57
			c-0.07-0.17-0.16-0.32-0.28-0.46c-0.14-0.16-0.31-0.29-0.52-0.37c-0.2-0.09-0.49-0.13-0.87-0.14h-2.63v5.39h1.12v-2.12h1.13
			c0.32,0,0.54,0.06,0.66,0.17c0.12,0.12,0.18,0.35,0.18,0.69l0.01,0.51c0,0.16,0.02,0.31,0.05,0.46c0.02,0.08,0.04,0.17,0.08,0.29
			h1.26v-0.13C32.96,18.08,32.89,17.97,32.86,17.83z M31.51,15.18c-0.12,0.06-0.31,0.09-0.55,0.09h-1.24v-1.45h1.27
			c0.24,0,0.41,0.03,0.53,0.1c0.21,0.11,0.32,0.33,0.32,0.66C31.83,14.88,31.72,15.08,31.51,15.18z"/>
		<path class="st1" d="M37.44,15.6c-0.21-0.16-0.53-0.29-0.95-0.39l-0.96-0.22c-0.37-0.09-0.61-0.16-0.73-0.22
			c-0.18-0.09-0.27-0.24-0.27-0.43c0-0.21,0.09-0.37,0.27-0.48c0.18-0.12,0.42-0.17,0.73-0.17c0.27,0,0.5,0.04,0.69,0.13
			c0.28,0.13,0.42,0.36,0.44,0.68h1.1c-0.02-0.58-0.24-1.01-0.65-1.31c-0.41-0.3-0.91-0.45-1.5-0.45c-0.7,0-1.23,0.16-1.59,0.48
			c-0.36,0.32-0.54,0.72-0.54,1.2c0,0.53,0.18,0.92,0.55,1.16c0.22,0.15,0.62,0.29,1.21,0.42l0.59,0.13
			c0.35,0.08,0.6,0.16,0.76,0.25c0.16,0.1,0.24,0.23,0.24,0.41c0,0.31-0.16,0.52-0.49,0.63c-0.17,0.06-0.4,0.09-0.67,0.09
			c-0.46,0-0.79-0.11-0.98-0.34c-0.1-0.12-0.17-0.31-0.21-0.55h-1.1c0,0.56,0.21,1,0.62,1.32c0.41,0.32,0.98,0.48,1.71,0.48
			c0.71,0,1.25-0.16,1.64-0.49c0.39-0.32,0.58-0.73,0.58-1.23C37.93,16.22,37.77,15.85,37.44,15.6z"/>
		<rect x="38.66" y="12.88" class="st1" width="1.14" height="5.39"/>
		<polygon class="st1" points="47.84,12.88 46.75,15.23 45.62,12.88 44.77,12.88 44.26,12.88 40.31,12.88 40.31,13.83 41.96,13.83 
			41.96,18.27 43.12,18.27 43.12,13.83 44.77,13.83 44.77,13.78 46.16,16.26 46.16,18.27 47.31,18.27 47.31,16.25 49.14,12.88 		"/>
		<path class="st1" d="M6.06,22.25V21.5c0.35-0.02,0.6-0.04,0.74-0.07c0.23-0.05,0.41-0.15,0.55-0.29c0.1-0.1,0.17-0.23,0.22-0.4
			c0.03-0.1,0.04-0.17,0.04-0.22h0.93v5.62H7.4v-3.89H6.06z"/>
		<path class="st1" d="M11.57,23.39c-0.29,0-0.5-0.08-0.64-0.25c-0.14-0.16-0.21-0.41-0.21-0.74c0-0.39,0.11-0.67,0.32-0.83
			c0.14-0.1,0.3-0.16,0.49-0.16c0.26,0,0.47,0.09,0.62,0.28c0.15,0.18,0.23,0.43,0.23,0.75c0,0.39-0.13,0.67-0.39,0.83
			C11.87,23.35,11.73,23.39,11.57,23.39z M9.58,22.5c0,0.58,0.18,1.02,0.53,1.33c0.35,0.31,0.76,0.46,1.21,0.46
			c0.31,0,0.57-0.06,0.78-0.19c0.12-0.07,0.22-0.16,0.33-0.29c-0.02,0.42-0.07,0.75-0.15,0.96c-0.15,0.4-0.41,0.6-0.79,0.6
			c-0.19,0-0.35-0.05-0.46-0.15c-0.12-0.1-0.19-0.24-0.21-0.4H9.68c0.05,0.47,0.25,0.83,0.59,1.08c0.34,0.25,0.73,0.37,1.16,0.37
			c0.9,0,1.52-0.43,1.86-1.29c0.18-0.45,0.27-1.02,0.27-1.69c0-0.7-0.09-1.26-0.28-1.69c-0.32-0.75-0.92-1.13-1.79-1.13
			c-0.57,0-1.03,0.18-1.38,0.56C9.76,21.42,9.58,21.9,9.58,22.5z"/>
		<path class="st1" d="M14.91,24.07l1.43-2.41v2.41H14.91z M18.08,24.07h-0.65v-3.51h-1.26l-2.11,3.4v0.96h2.27v1.21h1.1v-1.21h0.65
			V24.07z"/>
		<path class="st1" d="M19.7,24.37c0-0.37,0.11-0.63,0.33-0.8c0.15-0.11,0.31-0.17,0.51-0.17c0.23,0,0.43,0.09,0.59,0.26
			c0.16,0.17,0.24,0.42,0.24,0.74c0,0.29-0.07,0.53-0.21,0.71c-0.14,0.18-0.34,0.27-0.58,0.27c-0.25,0-0.46-0.09-0.63-0.28
			C19.78,24.91,19.7,24.67,19.7,24.37z M22.39,21.95c-0.04-0.44-0.22-0.8-0.53-1.07c-0.32-0.27-0.74-0.4-1.27-0.4
			c-0.37,0-0.68,0.08-0.95,0.25c-0.26,0.17-0.48,0.38-0.64,0.65c-0.19,0.32-0.32,0.71-0.38,1.19c-0.04,0.27-0.06,0.61-0.06,1.04
			c0,0.73,0.13,1.32,0.4,1.78c0.34,0.59,0.87,0.89,1.59,0.89c0.67,0,1.16-0.2,1.48-0.6c0.32-0.4,0.48-0.86,0.48-1.38
			c0-0.53-0.16-0.96-0.49-1.29c-0.32-0.34-0.74-0.51-1.24-0.51c-0.24,0-0.45,0.04-0.63,0.12c-0.18,0.08-0.34,0.2-0.48,0.36
			c0.03-0.43,0.09-0.76,0.17-0.99c0.15-0.41,0.41-0.61,0.77-0.61c0.24,0,0.42,0.09,0.54,0.27c0.07,0.11,0.11,0.21,0.11,0.3H22.39z"
			/>
	</g>
	<g>
		<path class="st1" d="M70.98,29.72l-0.01,8.13h-5.22v-8.84H57.7l5.51,8.91H57.3l-3.93-6.34l-3.76,6.34h-5.94l5.42-8.91h-8.3v8.84
			h-5.12l0-8.97c0.19-2.57,3.08-2.91,3.08-2.91h12.37l2.32-3.89l0,0l0,0l0,0l0,0l2.33,3.89h11.91
			C67.68,25.98,71.07,26.49,70.98,29.72z"/>
		<path class="st1" d="M35.72,42.69v11.15h9.2v-2.99h-4.13v-2.57h4.13v-3h-4.13v-2.35h4.13v-2.96h-6.7
			C38.22,39.97,35.78,39.82,35.72,42.69z"/>
		<path class="st1" d="M70.98,42.43v11.41l-9.21-0.01v-2.98h4.13v-2.57h-4.13v-3h4.13v-2.35h-4.13v-2.96h6.59
			C68.37,39.97,70.68,40.35,70.98,42.43z"/>
		<path class="st1" d="M70.98,58l-0.01,12.9h-5.12V59.03H40.79V70.9h-5.12l0-12.69c0.02-2.08,2.57-2.38,2.57-2.38h12.52v-3.18h5.49
			v3.18h12.31C68.58,55.83,70.94,56.36,70.98,58z"/>
		<polygon class="st1" points="58.48,62.2 55.97,62.2 55.97,64.61 58.48,64.61 58.48,66.87 62.76,66.87 62.76,60.34 58.48,60.34 		
			"/>
		<path class="st1" d="M46.69,71H62.8v-2.6H48.76v-1.68h-4.27v2.38C44.49,69.1,44.46,71.06,46.69,71z"/>
		<path class="st1" d="M59.87,52.43v-4.41c-4.35-0.99-4.23-5.11-4.23-5.11h4.21v-2.97H46.99v2.97h3.94c0,0,0.62,3.38-4.04,5.11v4.41
			c0,0,4.94-1.35,6.6-4.57C53.49,47.86,55.52,51.57,59.87,52.43z"/>
		<path class="st1" d="M50.95,60.42l-4.15-0.06c0,0-0.29,3.29-3.94,3.32v2.9c0,0,4.24,0.03,6.02-2.42c0,0,1.68,2.45,6.02,2.47v-2.85
			C54.9,63.78,51.64,63.42,50.95,60.42z"/>
	</g>
</g>
<g>
	<path d="M180.01,8.14h-7.55v7.45h-6.29v3.73h6.29v22.88H151V33.5h-7.41v8.15c0,0-0.33,4.07,4.67,4.28h31.77L180.01,8.14z"/>
	<path d="M153.05,23.01c3.41,3.38,8.74,6.72,13.97,8.15l2.42-3.81c-6.21-2.39-12.36-6.94-12.36-12.79V9.7h-8v4.91
		c0,6.32-6.2,9.97-12.47,12.69l2.53,3.9C144.25,29.94,150.36,25.95,153.05,23.01z"/>
	<path d="M313.25,41.38c1.75-3.65,1.29-16.05,1.29-16.05V9.7h-35.3v3.73h27.85v15.63c0,0,0.09,9.93-1.1,12.33h-4.83V23.92h-7.41
		v17.46h-4.23V23.92h-7.62v17.46h-4.99v3.73h40.52v-3.73H313.25z"/>
	<polygon points="117.76,32.04 110.27,32.04 110.27,41.18 92.9,41.18 92.9,44.91 135.13,44.91 135.13,41.18 117.76,41.18 	"/>
	<path d="M93.23,27.23l3.01,3.9c6.7-1.82,14.08-5.2,17.77-9.97c4.25,5.24,10.85,7.88,17.77,9.97l3.01-3.9
		c-9.02-2.56-16.21-5.82-16.78-13.96l15.41-0.04V9.5H94.6v3.72h15.41C109.39,21.41,102.31,24.63,93.23,27.23z"/>
	<path d="M259.15,21.38c0-3.47-2.58-5.65-5.96-6.64c0,0-2.71-0.9-4.54,1.16c0,0-1.83,2.07,0.89,4.31c0,0,2.42,1.89,0.77,4.07
		c0,0-0.88,1.73-3.41,1.72c-3.05-0.01-6.33-1.19-6.47-5.57c-0.12-3.54,1.97-5.92,6.37-6.44c11.51,0,11.49,0,12.47,0v-3.62h-10.09
		V7.14h-7.95v3.25h-10.01v3.62h4.98c-2.14,1.38-3.5,4.31-3.5,6.62C232.69,32.2,259.15,31.78,259.15,21.38z"/>
	<path d="M189.08,35.25h8.11c3.52,0,6.87-0.09,10.27-0.87v11.58h7.45V24.33h4.21v21.63h7.29V8.17h-7.29v12.48h-4.21V8.17h-7.45
		v22.44c-3.86,1.13-6.41,0.95-9.7,0.95h-4.67V13.69h10.11V9.96h-17.5v21.83C185.69,31.78,185.61,34.86,189.08,35.25z"/>
	<polygon points="271.34,8.03 263.78,8.03 263.78,31.95 235.45,31.95 235.45,35.67 263.78,35.67 263.78,45.86 271.34,45.86 
		271.34,34.55 271.34,31.95 271.34,19.25 276.84,19.25 276.84,15.52 271.34,15.52 	"/>
</g>
</svg>
